<?xml version="1.0" encoding="UTF-8" standalone="no"?><svg version="1.1" xmlns="http://www.w3.org/2000/svg" xmlns:xlink="http://www.w3.org/1999/xlink" style="width:100%; max-width: 360px; height:auto; max-height: 360px;" viewBox="0 0 360 360"><g fill-rule="evenodd"><path d="M241 323v-82h82v82zM171 69V37H37v134h134v-31H69v-20h102V89H69V69zm0 153v-32H37v82h101v20H37v31h134v-82H69v-19zm120-51h32V37H189v134h33V69h18v102h32V69h19z" fill="#fff"/><path d="M40 167h128v-24H66v-26h102V92H66V66h102V40H40zm0 26v76h102v26H40v25h128v-76H66v-26h102v-25zM192 40v128h26V66h25v102h26V66h25v102h26V40z" fill="#0067b9"/><path d="M244 320h76v-76h-76z" fill="#0d0802"/></g></svg>