<?xml version="1.0" encoding="UTF-8" standalone="no"?><svg version="1.1" xmlns="http://www.w3.org/2000/svg" xmlns:xlink="http://www.w3.org/1999/xlink" style="width:100%; max-width: 360px; height:auto; max-height: 360px;" viewBox="0 0 200 200"><path fill="#fff" d="M63.6 74.5c-1 0-2.7 0-2.9-1.9-.1-.9 3.6-4.2 2.7-5.6-.2-.3-1-.7-2.5-1.1-2-.4-5.3-.2-11.2 2h-.2l-.2.1-1 .4-1.1.3c-1.3-4.6 2.2-13.2 5.1-13.5 1.2-.1 2.6 1.6 4.3.6 3-1.7 3.4-4.2 3-7.4-.4-2.5-2.9-.2-4.6.5-1.8.7-1.8 1.1-2.3.6-1.6-1.4-.7-4.8 5.3-11.4a14 14 0 0 0 3.1-6.8c.2-1.3-4 2.4-4.4 1.5-.3-.7 3.3-4.2 5.2-5.2.9-.4.9.5 1.5.5.8-.1 5.9-4.7 5.5-5.5-.2-.5-3.8 1.6-4 1.1-.1-.3 3.8-2.2 3.8-2.2v-.2c-1.6.5-21.6 7-37.3 30.5-25.2 37.8-14.8 88.7 23.2 113.7s89.3 14.7 114.5-23a81.5 81.5 0 0 0 12.2-61.7c-4.2-20.6-17.6-39.1-22.5-41.5 1 1 1.6 1.6 1.3 2-.1.1-1.3.4-2.5-.8-1.1-1.3-6.4-5.4-7-6.3-.7-1-.6-1.3-.2-1.4l1.1.3c.3.1-5.2-4.2-5.5-4.4-.4-.3-1.4-.7-1.5-.6-.4.1.8 1 .6 1.1-.2.2-.7.1-1.2-.3-.2-.2-6.1-4.5-9.7-5.8-2.2.3-3.5.5-3.8 1-.3.5 4.9 2.6 5.1 3.1.3.6-.8 1.3-1.8 1.5-3.2.4-4.5-1.2-4.9-2-1.3-3.2-7.2-2-12.3 1.3-2.3 1.5-11 1.4-11 .3-.2-2.1.6-3.5-4.6-2.7-3.7.7-4.7 2-4.4 2.2.6.5 3.2 1.4 3.4 2.2 0 .6-3.2 3.7-12.3 3-1 4.9-.9 6 0 7.5 1 1.4 2.4 2 3.2 1.8 2-.5 3.9-2.8 5.3-2.8 2.5 0 4.2 2.3 4.1 5.6v.5c-.4 3.6-4.5 2.2-7.3 1.5-3.6-.8-3.6 11-.3 13.3a43.1 43.1 0 0 0-19.2 4.4c-3.6 1.6 3.4 5 2.2 6a17.2 17.2 0 0 1-6.7 3.2c-1.3.3-4.3.6-5.3.5z"/><radialGradient id="a" cx="191.78" cy="258.79" r="58.79" gradientTransform="matrix(0 2.1396 2.1792 0 -509.25 -338.22)" gradientUnits="userSpaceOnUse"><stop offset="0" stop-color="#fff"/><stop offset=".24" stop-color="#fff"/><stop offset=".33" stop-color="#EAEAEA"/><stop offset=".68" stop-color="#C9C9C9"/><stop offset=".7" stop-color="#C9C9C9"/><stop offset=".89" stop-color="#919191"/><stop offset="1" stop-color="#636363"/></radialGradient><path fill="url(#a)" d="M63.6 74.5c-1 0-2.7 0-2.9-1.9-.1-.9 3.6-4.2 2.7-5.6-.2-.3-1-.7-2.5-1.1-2-.4-5.3-.2-11.2 2h-.2l-.2.1-1 .4-1.1.3c-1.3-4.6 2.2-13.2 5.1-13.5 1.2-.1 2.6 1.6 4.3.6 3-1.7 3.4-4.2 3-7.4-.4-2.5-2.9-.2-4.6.5-1.8.7-1.8 1.1-2.3.6-1.6-1.4-.7-4.8 5.3-11.4a14 14 0 0 0 3.1-6.8c.2-1.3-4 2.4-4.4 1.5-.3-.7 3.3-4.2 5.2-5.2.9-.4.9.5 1.5.5.8-.1 5.9-4.7 5.5-5.5-.2-.5-3.8 1.6-4 1.1-.1-.3 3.8-2.2 3.8-2.2v-.2c-1.6.5-21.6 7-37.3 30.5-25.2 37.8-14.8 88.7 23.2 113.7s89.3 14.7 114.5-23a81.5 81.5 0 0 0 12.2-61.7c-4.2-20.6-17.6-39.1-22.5-41.5 1 1 1.6 1.6 1.3 2-.1.1-1.3.4-2.5-.8-1.1-1.3-6.4-5.4-7-6.3-.7-1-.6-1.3-.2-1.3.3-.1.9 0 1.1.2l-5.5-4.4c-.3-.2-1.4-.7-1.5-.6-.4.1.8 1 .6 1.1-.2.2-.7.1-1.2-.3-.2-.2-6.1-4.5-9.7-5.8-2.2.3-3.5.5-3.8 1-.3.5 4.9 2.6 5.1 3.1.3.6-.8 1.3-1.8 1.5-3.2.4-4.5-1.2-4.9-2-1.3-3.2-7.2-2-12.3 1.3-2.3 1.5-11 1.4-11 .3-.2-2.1.6-3.5-4.6-2.7-3.7.7-4.7 2-4.4 2.2.6.5 3.2 1.4 3.4 2.2 0 .6-3.2 3.7-12.3 3-1 4.9-.9 6 0 7.5 1 1.4 2.4 2 3.3 1.8 1.9-.5 3.8-2.8 5.2-2.8 2.5 0 4.2 2.3 4.1 5.6v.5c-.4 3.6-4.5 2.2-7.3 1.5-3.6-.8-3.6 11-.2 13.3a43.1 43.1 0 0 0-19.3 4.4c-3.6 1.6 3.4 5 2.2 6a17.2 17.2 0 0 1-6.7 3.2c-1.3.3-4.3.6-5.3.5z"/><path fill="#5a5a5a" stroke="#5a5a5a" stroke-width=".1" d="M62 53.6c6 .3 9.6-1.2 13.3-2.7-6.6-4.8 10.7-7 5.8-1.2 4.5.4 8.1-2.3 12.3-3.4 1.7-.5 5.1-.5 6.9-1.2-.1 4.2-4.5 2.7-7.4 2-3.6-.8-3.6 11-.3 13.3a43 43 0 0 0-19.2 4.4c-3.6 1.6 3.4 5 2.2 6a17.3 17.3 0 0 1-12 3.7c-1-.1-.9-.8.8-2.9 1.3-1.4 2-2.6 0-4a7.4 7.4 0 0 0-3.5-1.7c-1.9-.4-5.3-.1-11.2 2 1-6.4 2.6-8.2 3.7-9.6 1.1-1.3 2.7-.5 4.8-.2 2.2.3 3.5-2.4 3.9-4.5z"/><path stroke="#000" stroke-width=".1" d="M68.7 21.3s-4 2.1-3.8 2.4c.1.5 3.8-1.5 4-1 .3.7-4.7 5.3-5.5 5.4-.7 0-.6-1-1.5-.5-1.9 1-5.5 4.5-5.2 5.2.4.9 4.6-2.8 4.5-1.5a14 14 0 0 1-3.2 6.8c-6 6.6-6.8 10-5.3 11.4.5.5 2.3-.6 2.3-.6 2-5.7 7-7.7 8-13 .2-1.2 0-1.2-1.2-3.2 0 0 1.3-1.2 2-1.6.9-.5.8.5 1.6.2 1.8-.5 3.2-2.1 4.4-3.7s.3-1.8.4-2.4c0-.5.4.1 0-.8l-1.5-3.1zm61.7 2.9v2.4c.2.6 2 1.6 3.3 2 1 0 2.1-.8 1.9-1.4-.3-.5-2.8-1.1-5.2-3zm-33.9 3.7c0 .5 0 2.8.4 4.2 1.2-.6 3.1-1.5 3-2-.2-.9-3-1.6-3.4-2.2zm48 .3-.6.7c.5.4 1 .5 1.2.4.2-.2-.5-.8-.7-1zm5.9 4.6c-.3 0-.5.4.2 1.4l1-1.1-1.2-.3zm8.4 6.5-1.2 1.1c1.2 1.3 2.4 1 2.5.8.3-.3-.3-1-1.3-2zm-62.7.2c-1.4 0-3.3 2.3-5.3 2.8-1.6.4-2.5-1.3-3.6-2.4.4 2.5 1 5 3.3 5.5 2.1.5 4.5-2.7 6.6-2.7 1.2 0 2.5 2.2 3.1 2.8.3-3.4-1.4-6-4-6zm-37 7.9c-.2 3.3.6 6.7-2.5 8.4-1.7 1-3-.7-4.3-.6-3 .3-6.4 8.9-5.1 13.5l2.3-.8c.8-4 1.8-8 4.3-10.1 1.3-1.1 4.7 1 6.2-.3 2-1.6 3.8-6.9-.9-10.1zM63.4 67c1 1.4-2.4 4.4-2.7 5.6s1 1.8 2.4 1.8c-1-.7 1.7-2.8 2.3-4.6.3-.8-.2-1.5-2-2.8z"/><path stroke="#000" stroke-width=".1" stroke-linecap="round" stroke-linejoin="round" d="M32.4 113.8c-1.2.2-1.6 1.1-.9 3a20 20 0 0 1-6.2-2c-.4 1.2 3 1.9 4.6 2.6l.2 1.9-.7-.7c-.7-.5-1.3-1-2-1-.3 0-.5 0-.7.3-.8.9-.4 2 .7 3s2.5 1.5 3.1.8c0 0 0 0 0 0 .3 1 .5 2 1 2.8l.8.6c-.8-3.9-1-4.8-1.3-7.4l1.6.3 1.2 6.5 1.4 1.5c-.7-4-1.2-5-1.4-7.8l1 .4s.3-.5-.1-1c-3.6-.7-3.5-5.2 3-.6 0 0 1-.4.2-1-2.3-1.6-4.3-2.3-5.5-2.2zm-4.8 5c.3 0 1 .3 1.3.6.7.6 1.3 1.3.8 1.7-.5.4-1.3-.2-1.9-.8s-.9-1.1-.5-1.5h.3z"/><path stroke="#000" stroke-width=".1" d="M31.3 138.6c2.2.8 3.3 3.6 3.8 4.2l2.3 1.2-1.9-3.7c.8-.1 6.5 2.7 9 5.4 1.9 2.2 2.8 4.5 1.4 6.1-.2.2-1 .2-1.2-.3.6-.7.9-1.7.4-3a9.3 9.3 0 0 0-2.1-3.2 20 20 0 0 0-5.6-3.2c.9 2 2 4.5 3.5 7-1.3-1.2-1.9-2.6-2.7-3.6l-2.4-1.3 1.2 2.2c-.8-1-1.3-1.9-2.3-3.5-.5-.8-.8-1.5-1.4-2.2a5.5 5.5 0 0 0-1.3-1.3c-.1 0-.7 0-.7-.8z"/><path d="M172.1 85.3c-1 1-1.3 2.1-1 2.6.9 1.2 2.1 0 2.7-.7.3-.5.5-1.2.5-1.7s-.6-1.8-2.2-.2zm4.9 2.6a389.2 389.2 0 0 0-1.6-6c0-.3-.4-.3-.7-.3h-.7c-.2 0-.3 0-.4-.2l.3-.3c.2-.2.6-.3 1-.4.6-.1.8-.1.9.1 0 .6.2 1 .5 2l1.1 4.3.5 2.4c0 .6 0 1-.2 1.2-.2 0-.5-1.8-.7-2.8zm-.6-.8L174 90l.3 1v.9c.2.3.2.7.2 1.2l-.1.8c-.1 0-.2 0-.3-.3a4 4 0 0 1-.2-.7l-.2-.6-.4-1.7-1.2 1-.4.4-.3.4-1 .2c-.5 0-.8 0-.8-.2V92c.6-.2 1.1-.5 1.8-1 .5-.2 1.2-.8 2-1.5l1.8-1.8 1-1.2.2.5zm-4-2.8c.5-.3 1-.6 1.5-.5.4 0 .9.7 1 1.2 0 .7-.1 1.3-.5 2-.3.6-.8 1.2-1.3 1.6-1.4 1.1-2.2.7-2.6 0-.4-.9.1-2.5 1-3.4l.2-.3.2-.2V84.4l-.2-.1.1-.1.4-.2h.2v.5-.2zM104 31.5l1-.5.7 2 3-1.5c1.3 5 .7 9.5-3 14.9-.4-.4-.7-1-.9-1.3 4.1-6.7 3.8-7.8 3-12.1l-4.4 2.4v3.5l-1.2.9v-4.9l2.4-1.3m9.8-.7 3.4 5.5-.9.7-3-4.7c-.2.5-1 2-1.7 2.8a1 1 0 0 0-.3-.3l-.2-.2-.4-.2 1.7-3c.5-1.2 1-2 1-3.6h1c0 1.3-.4 2-.6 3"/><path fill="none" d="M68.5 20.8A81.9 81.9 0 0 0 17 96.7 82.7 82.7 0 0 0 99.9 179a82.7 82.7 0 0 0 83-82.4c0-21.6-8.5-41.2-22.1-55.9-1 1-2.6.9-4.8-1.5-1.7-1.8-8-7-5.1-6.3 2.3.6-5.7-5.6-6.3-4.9l-.6.8c-4.1-2.6-9-6.8-11.8-5.6-2 1-1.9.3-1.7 1.3.3.9 1.4 3.2 3.1 4 0 0 0 .4-2.5 0-2.9-.5-1.7-3.7-5-3.6-2 0-4.1-.1-5.6.9-4.8 3.2-8.4 3-13.3 3.1-3.7.2 0-3-3.3-3.4a12 12 0 0 0-6.1 1c-1.2.6-1.7 0-1 5.6-3.5 1.6-8.1.5-9 1.3-.7.6-1.6 7.3.8 10.7 3.2 4.2 6.3-2.9 9.3-1.2.9.6 2.2 2.2 1.8 2.5-1.6 1.2-2.6-.1-6.6.8-1.6.4-7.3 3.7-12 3.4.2-.2.5-.2.9-1.3.6-1.9-3-3.8-8.2 0-.4.3.8 1.6 1.3 2.5-2 .5-5.4 3-13.1 2.7.4-3.4-2.8-6.5-3.6-6.4-1.1 0-2.3 1.3-3.6 1.9 1.6-2.8 1.8-3.6 2.7-4.6 2.9-3.3 4.5-4.8 5.6-9 0-.4.6-.2-1.3-2.7 3.6-3.3 2.3-1 3.8-1.5s4.6-4.7 4-6c-.8-1.6.1-1.8-1.1-4.5z"/><path fill="#5a5a5a" stroke="#5a5a5a" stroke-width=".1" d="M178.6 107.9c1.6-2.4-.7-3-.5-4.6.5-3 4-8.8 4.5-9.1-1-.3-2-11.5-1.6-12.2-.7.4-.1 7.7 1 12.2-2.4 3.7-4.1 8-4.2 9-.1 2 1.7 2.9.8 4.7z"/><path d="m55.2 31.2 2-2c-.2-.1-1.3.2-1.6.4-2 1.7-3.6 3.5-5.3 5.3l-.8.2c2.4-2.6 4.9-5 8-7.6l.6-.1-2 1.7.8-.2c.1 0 1-.3 1.2-.1.3.1-1.4 1.5-2 2.2l-.9.2zM59 81.7a1 1 0 0 0-.4.2l-.4.5.1.4c.1.2.3.3.6.3h.6c.1 0 .2.2.1.4 0 .3-.2.6-.5.7l-1 .5-.1.3c1.4-.3 2.2-.9 2.5-1.8 0-.3 0-.6-.2-1s-.5-.4-.9-.5H59zm8.5-.4c-2.2.3-4.1 1.1-5.4 2.2-1.2 1.1-2 2.8-1.9 4 .2 1.3.6 2.4 1.7 3 1.1.7 1.9 1 3.1 1v.7l-1.4.2h-1.4c-.3-.1-.7-.5-.8-.9h-.8l.2 2.2 6.4-.9L67 91c-2.1-.2-2.5-.8-3.1-1.3a4 4 0 0 1-1.3-2.3c-.1-1.2.4-2.8 1.4-3.7.8-.8 1.7-1.2 3.4-1.6 1-.2 2.9-.3 4 .3.5.2 1.7 1.2 1.9 2.6.3 2-.7 4.2-3.7 5.7l.1 1.8 7-1-.3-2.3H76l-.8 1.1c-.1.3-.4.5-1.1.6l-2 .3v-.8a7.6 7.6 0 0 0 3.2-2.1 5 5 0 0 0 .9-3.6c-.2-1.3-1-2.3-2.5-3-1.5-.7-4-.6-6-.3zM161.4 53c-.4 0-1.5.3-1.7.7-.1.4-.3.8.8 1.3.4.2 1-.3 1.7-.4 1.2 0 2.2 2 1.6 3.6-.4 1.1-1.6 2-3 2.5-.8.4-1.5.3-2.1.2-.7-.2-1.2-.7-1.5-1.4-.2-.5-.4-1.1-.4-1.8 0-.5.4-.6.6.6.3.6.8 1.3 1.3 1.4.6.1 1.2 0 2-.3a5 5 0 0 0 1.8-1.6c1-1.2.6-2.1 0-2.3-.3-.1-1.1.5-1.8.4-1.1 0-2-1.5-2-2 0-.7.5-1 1-1.4.6-.5 1.9-1 1.7.4zm2.8 6.9v1.3l-1.6-.2.3-1.2h1.3zm-2 1.3v1.3l-1.6-.1.1-1.3h1.5zm-96 54.9-.3.2c1 .6 1.5 1.1 1.8 1.5.2.4.5.4 1 0 .3-.3.4-.6.1-.8l-2.6-.9zm7 0c.2.8.8 4.5 2.3 10.7h-1.6l-.8-.2.9.8 2.2-.4 12.7-1.5-2.4-.8-1.4.9-2.2-9.6 1-.5-1.8-.6-1.3.8-5.6.6-2-.3zm1.7.5 6.2-.7.6 3-6.1.7-.7-3zm-5 1.4-.7.6-6 .6.8.3 1.9-.3 3.1-.3c-.7 1.2-1.5 2.2-2.6 3.1s-2.1 1.7-3.3 2.4l.3.1c1.7-.8 3-1.6 4-2.4.4 3 .5 5 .5 5.6l1.4-.6-.6-4.9c1.3.5 2.2.9 2.6 1.3s.7.4 1 .1c.2-.3.2-.5.1-.8s-.8-.4-2.2-.7l2-1.5.7-.2-1.6-.6c-.3.8-.8 1.5-1.5 2.2l-1.1-.1v-.6l1.7-2.3 1-.4-1.6-.6zm5.7 1.9 6.1-.7.7 3-6.2.7-.6-3zm.6 3.3 6.3-.7.7 3.4-6.2.7-.8-3.4zm58.9-28h.9c.3 0 .4.1.5.3.1.4-.2 1-1.1 1.6-.9.6-2.3 1.2-4.4 1.8-2 .7-3.6 1-4.7 1s-1.6-.3-1.7-.7c0-.2 0-.4.2-.6l.8-.4a2 2 0 0 1 1-.1l1.2.5c.8.4 1.8.4 3.1 0s2.1-1 2.6-1.8c.3-.5.5-1 .7-1.1.2-.2.5-.4.9-.5zm1.4 4.1c-.2-.5-1-.3-2 0l-.1-.3 6.6-2.3v.2c-1 .6-2 1.1-1.9 1.7l1.8 7.8c0 .2.9 0 2-.2l.2.2-6.5 2.5-.1-.3c1.3-.6 2.1-1.1 1.9-1.9l-1.3-6.2-8.2 10.2c.4 0 1.5 0 2.3-.2v.3L124 113l-.1-.3c1.5-.7 2.3-1.1 2.2-1.5l-1.7-7.9c0-.4-1.4-.4-2.5 0l-.1-.3 7.7-2.5.1.3c-.8.4-2.9 1.1-2.7 1.8l1.5 6.6 8-9.9zm41.2 17.2c-.3.2-1.7 3.2-2.6 4.9l-1.3 1.4v-3.4c-.5 1-1.4 1.3-1.6 1.1-.2-.2 0-1.3.6-2 .4-.6 1.4-1.6 2-1.7 1 0 .1 2.6.2 3.8.8-1.8 1.8-3.5 2.9-5.2l.2-2.7c0-.5-.3-.8-.9-.5-.5.3-1.2.9-1.8 1.6-1 1-2.3 2.5-2.8 3.9l-1.4 1.3c.2-2.5 4-6.5 6.5-8.5.5-.5 1-.3 1.2.3.2.7-.1 1.5 0 3 .8-.8 1-.8.8.2-.1 1.1-1 2.6-1.6 3.6-.6.8-.5 0-.4-1.1zm-4.3 1.9c-.4.5-.5.7-.5 1 0 .4.3.2.6-.1.3-.3.6-.7.6-1 0-.6-.4-.2-.7 0zm5.3-3.3c-.2.4-.3 1-.1 1l.4-.6c0-.3.3-.9.2-1-.2-.2-.4.3-.5.6zM130.3 61v.1l-.2.2a3 3 0 0 0-1.1.7c-.3.3-.5.7-.7 1.4l-2.4 9.5c0 .1 0 .2-.2.2h-.3l-4.3-3.3-2 5.2-.3.2h-.4l-7.6-6.5c-.5-.4-.9-.6-1.3-.7h-1.6c0 .1-.1.1-.2 0h-.1v-.3a26.5 26.5 0 0 1 2.9-.7 33.4 33.4 0 0 0 3-1c.1-.1.2 0 .2 0v.3l-1 .6c-.2.2-.3.4-.2.6 0 .1 0 .3.3.4l6.2 5.2 1.5-3.8-3.2-2.5c-.6-.5-1-.7-1.4-.8H114.5l-.1-.1v-.3a18.1 18.1 0 0 1 2.5-.6 22.5 22.5 0 0 0 2.7-1c.1 0 .2 0 .2.2v.2c-1 .4-1.3.7-1.2 1l.5.6 2.1 1.6 1-2.4v-.7c-.1-.5-.6-.6-1.6-.3l-.1-.2v-.1a22.3 22.3 0 0 1 2.5-.7 18.9 18.9 0 0 0 2.2-.7l.2.1c0 .2 0 .2-.2.3-.5.2-1 .4-1.2.7-.3.3-.6.8-.9 1.5l-1.2 3 3.8 3 1.6-7.4V63c0-.5-.6-.6-1.5-.3-.1 0-.2 0-.2-.2l.1-.2a21 21 0 0 1 2.3-.6l1-.4 1.1-.4c.1 0 .2 0 .2.2zm14.9 79.1c0-3.8 0-4-.2-6.6-4.4 1.7-11.5 4.6-12.7 4.8-1.1.2-2.6 0-2.4-.8.2-.7 1.7-2.2 3-2.6-.5.5-.8 1 0 1s4.5-1.5 6.3-2c1.8-.7 5.5-2.7 6.6-2.2 1.2.4 1 4.1 1 6.8l-.1 1c-.4.4-1 .5-1.5.6zm-61.8 13.6c.2.3 1.4.3 2 .5.5.2 3.4.3 4.4.3 1 0 2.2-.5 2.7-1 .5-.2.7-.6.7-1 0-1-2.6-1.8-4.6-2.2-1.9-.4-5.3 0-8 .1-3.1.1-5.5.3-8.3.3-.3 0-.8-.3-.8-.6 0-.5.7-.7.8-1.3v-.3h-.8l-1 .1-.9-.1c-.2-.1-1-.5 0-.7.5-.1 2.4-.4 3.2.3.8.7 0 1.5 0 1.5h3.7c3.4-.1 11.2-.8 11.2-.8.5 0 1.8-.4 2-.6.4-.2.6-.4.5-.6-.4-.8-.9-.7-1.9-1 1.5-.2 3.2.1 3.3 1 0 1.1-1.1 1.7-2.5 2.2 1.4.2 3.2.8 4.1 1.3.9.5 1.4 1 1.5 1.6 0 .6-.3 1.2-1.1 1.7-1 .6-2.2 1-4.2 1-1.7.2-4.6-.3-5.7-.7a11.6 11.6 0 0 1-8.9.8c-.8-.5-1.4-.8-1.4-1.4 0-.4 0-1 .8-1.1a9 9 0 0 1 2.6-.2c1.5 0 3.3.8 2.3 1.6-.2.2-.7.2-1.2 0 1.2-1.2-3.4-1-3.3-.4 0 .3.3.6.9.8.6.2 2.7.3 3.6.3 1-.1 2.4-.5 3-.8s1-.3 1.3-.6zM71.3 148l-.7-.1-.6.1.6.2.7-.2zm72.5-108c-2.6-5.4-3.4-6.8 0-7.3-1-.6-1.3-1-2-.8-1.4.4-3.6-1.2-4.6-1.6 1-.4 2.4-.8 3-.8l1.7.5c-.3-.6-2.7-2.1-3.1-2l-6.5 1.7c.5 1 5 1.5 7.3 2.7 0 .8 1.1 6.1 4.2 7.7zM30.7 81.2l-.6 1.6a5 5 0 0 1-.4 2.8h2c0-.8.9-2-.7-2.8l.5-1.5h1.9a10 10 0 0 0-1.2 4.2h.7c-.8 2-1 3.2-1.2 6.1A7.6 7.6 0 0 0 26 90c0-1 1-3 1.2-3.3H27l.5-1.2h1.8c.2-.4.6-1 .4-2.6-.8-.1-1.4-.2-1.7 0-.5.2-.8.7-1 2.2 0-1.4 0-2.4.3-3 .2-.4.6-.5.8-.8h2.7zm.8 6.3c-.5-.8-3.3-.8-3.6-.8-.4.4-.8 1.5-1 2 1.8-.2 3.8 1.3 4.5 2 0-1 .1-2.2 0-3.2zm2-7c-.4.1-1-.6-1.8-1.3-1-.9-2.7-1.5-3.3-.8a1 1 0 0 0-.3.8c0 .2.1.4.4.5l.8.1c-.1.7-.2 1-.5 1.1-1.3 0-1.7-1.3-1.6-1.9.1-.7.3-1 .5-1.3.6-.7 1.2-.7 1.8-.7 1.5-.1 3 2.4 4 3.6zm1-23.6 2.9-5.6 1.7-.4.7.5-2 4c-.2.4 0 .8.5.8s1.3-.3 1.6-.7l1.5-3.3-.6-1.1 1.7-.8.4.4h.5l-1 .6-.4-.5-.7.3.6 1-1.5 3.3c-.4.9-2.3 1.3-2.9 1-.3-.1-.2-.7 0-1l1.8-3.8-.4-.3-1.3.2-1.8 3.6c.3-.2 1.2-.5.6.5-.3.5-1.4 1.3-1.4 1.3h-.5zm.7-.6.4-.8c.5-.5.7-.4.5 0-.1.3-.6.7-1 .8z"/><radialGradient id="b" cx="312.7" cy="279.8" r="71.1" gradientTransform="matrix(0 1.4984 1.3097 0 -325.4 -394.3)" gradientUnits="userSpaceOnUse"><stop offset="0" stop-color="#c8c8c8"/><stop offset="1" stop-color="#5a5a5a"/></radialGradient><path fill="url(#b)" d="M77.5 103.2c-2 1.6 2.3 2.8 3.2 4.3.8 1.5-2 3.1-2 3.1.1 0 3.3-1.8 2.5-3.3-.8-1.4-5-2.7-3.7-4zm-9-82-.4.2c0 .1-2.4 1.1-3.6 2.3-.1.3.9.9 3.3-.4-.4.6-2.7 3-4.3 4-.6.4-.4-.5-1.4-.1-1.5.7-5.5 3.6-5.8 5.9-.2 1 4.6-2.4 4.3-1.4-.3 1.2-2.2 6.3-5.8 8.8l-5.6 1c-2.8 0 5.5-4.7 1.6-4.9-4.9-.2-5.7 2.4-6.7 4.5 1.2-2.1 2.2-4.7 6.8-4.4 3.2.2-4.9 5-1.7 5 2.1-.5 2.5-.5 5.7-1 3.5-2.6 5.6-7.7 5.9-9.1.2-1-4.6 2.5-4.5 1.4.4-2 4.3-5 5.8-5.7.9-.4.7.6 1.4.2a21 21 0 0 0 4.6-4.4c-2.4 1.2-3.5.9-3.5.6 1.2-1.1 3.7-2.3 4-2.4zm-24.4 20c-1 1.6-2 2.9-4.9 2.5 2.2-2.6 5.2-5.7 7-8-1.2.8-1.2.7-.6 0-.9 1-1.1 1.3.3.3-2.4 2.5-4.6 5.2-6.8 7.8 3.1.4 4.1-1 5-2.6zm23.8-19.6-2.1.7c-3 1.6-6 3.4-9 4.8-2.3 2-3.6 2.8-5.4 4.4.4-.7 0-.6-.7-.2.6-.3.9-.3.6.4C53 30 54.6 29 56.8 27c3.1-1.5 6-3.3 9-4.8l2.1-.8zm67.5 2.2c2.4 1.3 5.3 3.5 8.1 5-1.5-1-4.2-3.1-8.1-5zm-10 1.2c-.6 0-1.5 0-2.7.3 7.5-1 2 5.4 11.6 3.5-7.4.6-3.8-3.8-8.8-3.8zm-23 .6c-2.2.1-4.7 1-5.6 1.7 1.3-1 5.5-1.8 7.3-1.2 1.5.6-1.1 1.6 1.3 3 1 .5 4.5.6 7.6 0-3 .4-6.4 0-7.1-.3-1.2-.4.3-2.5-1.2-3-.6-.2-1.5-.3-2.4-.2zm15.4 1.7c-.3 1.3 4.6 7.4 8.1 7.5 1 0 1.5-1.1 2.3-1.8.7-.7 1.2-1.2 1.6-1.3.3 0-.9-.5-1.6 0-.8.6-1.5 2-2.2 2.2-2.3.6-6.9-5.6-8.2-6.6zm-21.3.3zm48 .7.6.6c-.1-.2-.2-.4-.5-.6.7 0 5.2 3.5 5.8 4 1 .8-1 0-.9.7.2 1.3 4 4.5 7 7.5-1.6.6-3.6 2.6-3.6 3.8 0 2.2 3.1 3 4.1 4.3 1 1.3-.6 2-4.3 3 2 1 6.2-.3 5.4-2.7-.8-2.7-3.6-2-4.2-4.5-.2-.9 2.8-3.2 3.4-3.4 3.4 2.6 8.5 8.2 8 9.5 0 .4-1.6-1.1-2.4-.7-1.5.8 3.8 9 5.5 9.7.6.2 1-4 .5-4-1 0 0 3.2-.7 3-.6-.4-4.7-5.7-4.6-7.6 0-.7 2.6.8 2.5 0 0-1.6-5-7.2-8.9-10.5-5.7-5.5-7.4-6.9-7.1-7.3.3-.5 1.7.4 1.4 0-.7-.9-5.2-4.4-6.5-4.8h-.5zm.6.6v.5c.2-.2.1-.3 0-.5zm0 .5c0 .1-.1.2-.3.1h.4zm-1.4-.4 1 .5-1-.5zm-13.8 3c2.2 1.3 5 3.8 5.5 5.6.5 1.4-1.2 1-3.2 1 2 .7 4.6 1 4.3-.9-.3-2.2-4-5.7-6.6-5.7zm-33.8.5c-2.8 1-5.4.4-8.5.6v.4c2.8-.2 5.4.2 8.5-1zm-8.5 1.2c-.3 1.8-.6 3.6-.6 4.9 0-1.4.4-3.5.6-4.9zm-37.8 3c-1.3.1-3.2.8-3.6 1.6-1.7 3.5-4 6.7-7.4 5.6-2 1.8-6.2 7-6.1 9.5 0 .5 2.4-2.7 2.6-2.1.3 1-.8 3.1-1.7 4.7-.8 1.3-1.8 3-3 3.7-.2.2-.5-1.9-.8-1.4-2.3 3.1-5 7.9-4.9 10.9 0 1.7 3.2 3 5.3 0 .8-1 0-4.5.9-5.4.5-.5 1.6-1.3 2.8-1.5 1.3-.2 4 .3 3.8 1.5-.3 2.3-3.6 4-2.4 5.3 2 2 8.4 1.5 11.5-.3-1.5-4.7 1.8-13 5.2-14 1.2-.4 2.3 1.2 3.8.8 2.8-.8 3.4-3.5 3.4-5.2 0-1.6.5-3.5-.9-3.2-1.8.4-4.7 3.7-6.1 2.5-2.2-2.1 1-6 2.6-8.7-1.5 0-6.2 1.4-7 .6 0 1.4 4.7-.1 6.4-.1-1.5 2.8-4.5 6.3-2.4 8.5 1 1.1 4.3-1.6 6-2 1.4-.4 1 1.2 1 2.8 0 1.6-.4 3.7-3.1 4.4-1.5.5-2.5-1.3-3.7-.9-3.4 1-7.4 9.5-6 14.3-3 1.8-8.1 1.7-10.1.4-1.5-1 1.9-3 2.2-5.4.2-1.3-2.7-1.9-4-1.6a7.7 7.7 0 0 0-3.3 1.7c-1 .9 0 4.4-.9 5.4-2.1 2.3-4.6 1.8-4.7 0 0-3 2.5-7.3 4.5-10.2.3-.4.6 1.4.9 1.3 1.1-.7 2.2-2.7 3.1-4 1-1.4 2.4-4.5 2-5.5-.3-.6-2.9 2.6-2.8 2.1.7-2.4 4-6.8 6-8.5 3.3 1 5.8-2.2 7.4-5.6.5-1 3-1.7 4.2-1.6l.5.1c0-.2 0-.4-.6-.4h-.6zm1.2.5c-.3.8-3 2.4-3.4 4l.1.4v-.1c.5-2 4.2-3.8 3.3-4.3zm79.8.5c-1 0-1.5 1-1.5 2 0 1.5 3.7 9 6.7 10-5 3.2-6 2.3-13.3 3.4 4.7-.3 11 .7 15.1-3.6-3.7-1.8-6-6-7.2-9.8-.4-1.4.4-1.3 1.2-1.6a2 2 0 0 0-1-.4zM87 39c0 .3 0 .6.2.8h.1l-.2-.4V39zm8.6 0H95c-2.4.7-4.1 3-5.8 3L88 40.6c1.4 1.5 1.8 2 3.1 1.5 2-.7 3.5-2.8 5.8-2.7h.4c-.5-.2-1-.4-1.6-.4zm-58 4.5.7.4c-1.3 1.5-6 6-6 9.5 0 .3 0 .4.2.6.2.2.8-.3 2-1.6 0 0 .3-.4.4 0 0 1-3 5.4-3.7 6.2-.4.4-.4.4-.6 0-.3-.8-.4-1.2-.5-1.1-.4 0-2.7 3.1-4.4 6.9a24 24 0 0 0-1.4 3.9c-.2-.2-.8-.8-1-.8l-.2.2c.5.2.8.4 1.3 1.1.6-3.4 3.4-8.8 5.6-11 .3-.4.6 1.7 1 1.3 1.6-1.8 4-6 4-6.9 0-.9-1.8 1.6-2.3 1.7-.1 0-.3-.1-.3-.3-.3-2.8 3.2-6.8 6.1-9.7l-.9-.4zm109 1.6c-4.2 0-9.4 3.3-8.8 4 .8.8 5.4-4.4 11.3-3.3-.7-.4-1.6-.6-2.6-.7zm.5 1c5.3.8-.5 7.4 7 6.3-6.2-.5-.4-6.6-7-6.3zm-30.7.8c-6.2.2-12.3 3-10.4 5.5 1 1.2 5.1 2.4 4.2 3.7-2 2.8-7.2 3-16.4 4 13.7-.2 14.6-1 17.7-3.8 2-2-3.4-3-4.3-4.9-.9-2 7.4-4.7 13.2-4.2a18 18 0 0 0-4-.3zm1.6.7h-1c-1.3.2-2.9.5-4 1 2.9-.4 5.2-1 6.5.2.6.6-.9 2.5-.7 3.7.4 2.2 1.4 1.8 11.4 1.3-9-.3-11.3 1-9.1-4.4.4-1.2-1.2-1.7-3.1-1.8zm20.2 2.7-.2.1c-.7 1 5.4 5 5.2 9.1 0 1.7 0 1.8-2.6 1.6 2.2.7 4 1 4-1.4.1-4-5.2-9.3-6.4-9.4zm31.3 6c2 3 3.4 4.6 5 9.2-2.4 1.8-4.8 5-4.6 7.6.2 2 2.8 3.1 2.7 4.4 0 1.7-2.8 4.1-4.6 4.6 2.6 1.8 5.9-3 5.8-5.3 0-1.1-2-1.6-2.6-3.7-.6-2.4 3.2-6.2 3.6-6.5 1.4 1.2 3.6 15 5 8.9-1.5 4-2.8-5.8-4.6-9.2.9-.4.5-.3 1.2-1-.1-.2 0-.4-.4-.8-.8.7-.6.4-1 .9-1.2-3.8-3-7-5.5-9zm-60 2.5c-7.5 2-9.7 1.8-14.7 2.1 5.2.8 9-.3 14.7-2.1zM91 60.5h-2c2.1 0 2.9.8 2.9.8 2.4 2.1 4 6 3.9 9-.1 2.9-1.1 4.6-5.6 3.4-4.3-1.2-9.3.4-8.4 5.4.6 3.4.8 8 6.8 7.5-3.7 0-6-4.5-5.7-8.3.4-5.3 5.2-4.9 9.1-4 2.2.5 4.2.8 5.3-4 .4-1.8-1-5.7-4.6-9.7l-1.7-.1zm47.6.4h-1c-2.2.1-3.3 1-3.5 2.6-.2 3.6 3 10 7.4 9a9 9 0 0 1-5.8-9.4c.1-1.6 1.8-2 4.2-2.1l-1.3-.1zm-49.8 0c-5.3.2-13 3.5-15.5 4.8-1.2.6 4 3.8 3 5.3-2.8 4-11.2 4.6-15 3.6-4-1 3.5-6.4 1.3-7.7-2.7-1.7-8.5-.3-14.8 2.4.7 5.7 1 6.6-.3 10.5-.5 1.4-2.1 5-6 2-2-1.6-3.8.1-4.2 3.2-.6 4.3.2 8.5 4 5.1 1.6-1.3 4-.7 4.4.6 1.8 5.2 3.3 8.8.8 13.5 12.3-3.3 17.1-1.3 18.9-.6 2.4 1 .2 3.3-1.8 6 2.9-3 4.3-5.1 2.2-6.5-3.8-2.4-12.8-1.1-18.4.4 1.9-4.1 0-9.9-1.4-13-.7-1.7-3.4-2.3-4.9-.9-4 4.3-3.5-2.3-3.1-5 .2-1.8 1.3-3.7 3.3-2.3 2 1.4 4 2.9 6.5-1.9 1.8-3.3 1.6-7.3.8-11.1 6.3-2.4 10.7-3.6 13.6-1.8 1.2.9-4.7 4.8-2.6 6.7 2.1 2 13.4 1.4 16.7-2.5 2.1-2.6-4.4-5.1-2.5-6a41 41 0 0 1 17-4.5c-.5-.2-1.3-.2-2-.2zm50.5 1-1.4.1c2 .7 2.9.9 5.3.4-1.5-.2-2.7-.5-4-.5zm-104.7 1c-1 0-2.2.3-2.8.8-1.2 1-.3 4.2-1.2 5.9-1.4 2.4-4.1 2.8-6.1.6-.7 4-2.4 12.3-3.7 12C22 82.9 24 75 24.7 71c2 2.1 5.2.7 6.5-1.6 1-1.7-.3-4.7 1-5.5 1.6-.8 5.6-.7 4.5.6-1 1.3-3 3.4-2.2 5.3 1 2.2 8.4 2.4 12.2.2.3 4.4.6 9.8-2.2 11.6-1.3.9-3-1.8-4.7-2-3.7 0-6 11-1.3 13 1.6.7 2.5-1.8 5.1-2.2 1.5-.2 3.3 10.3 1.7 12.7-2.5 3.7-12 1.1-13.8-.8-.9-1 2.8-3.6 1.7-5.3-1.8-2.8-7-3.8-8.7-2.2-2 2 1.6 6 0 7.3-1 .8-3.4-.5-4.3-2.4.2-3.8 1-16.2-.8-13v-3.2l-.1 3.8c1.8-3.3.8 9 .7 12.8 1.1 2.3 3.7 3.5 4.7 2.6 1.6-1.3-1.8-5.5.2-7.5 1.6-1.6 5.3-.4 7.6 1.9 1.4 1.4-2.1 4-1.6 5.3.8 1.9 12 5.6 15.3.8 1.7-2.4-.3-13.8-2.5-13.2-2.7.6-3.5 2.9-5.1 2-4.3-2-1.7-11.7 1.3-11.6 1.8 0 3.5 2.7 4.9 1.8 2.8-1.9 2.7-8.3 2.4-12.8-4.3 2.5-11.7 1.6-12.2.4-.9-2 1.2-4.1 2.3-5.5.7-.8-1-1.4-2.7-1.4zm112 4.5c-2.6.3-5.4 3.5-5 4.2.8 1.3 3.5-4 6-4.1l-.5-.1h-.5zM23 68.4c-.2 0-.3 0-.4.2-.1.5 1.7-.4 1.1 2.2-.4 2.1-1.1 6.6-2.6 9.4-.2.4-.5-2.2-.8-2-1.1.4-2.2 9.4-1.5 10.3 0 0 .5-.8.6-.4.7 2.4-.3 3.7-.2 10.2-.2-.6-1.5-3.3-1.6-2.2 0 .3 1 2.3 1.7 3 0-3.5 1.2-9.4.3-11.7-.1-.3-.6.5-.7.7a21 21 0 0 1 1.2-9.4c.2-.3.5 2.7.7 2.4 1.6-2.3 2.5-7.5 3.1-10.4.3-1.5-.4-2.3-.9-2.4zm124 0-.2.1c-.1.1 8.1 8.2 5.2 13-2.8 4.6-15.2 5.3-16.3 6.2 4.7-.9 15-.4 18-6.6 2-4.4-4.7-13-6.6-12.7zm-59.7 6c-.6 0-1.1.2-1.6.5 1.8-.1 6.2 1.8 9.3.3-3.7.4-6-.7-7.7-.7zm77.2.1c-4 .1-10.2 4.5-9.2 5.5 3.6-1.6 3.7-3.6 10.8-5.3-.5-.2-1-.2-1.6-.2zm1.2 1c1.5 2.8-2.5 10.1 2.8 7.1-4 .8.1-6.3-2.8-7zm-33.1 4.1c-6.5-.1-15.6 3.4-15.7 7 0 2.3 7.3 3.3 4.4 5.5-7.7 5.7-18 3.6-18.3 5 4.6 0 13.8.6 20.2-5.3 2.5-2.2-5.3-4.1-4.8-5.8.7-3.2 11.2-6.5 16.7-6.1-.7-.2-1.6-.3-2.5-.3zM20 80l-.7 3.5c.1-.9.3-1.7.7-2.7 0 .3.2.7.4 1-.2-.4-.3-1.4-.4-1.8zm113.7 1-4.7.4c4.7 0 5.8-.6 3.2 4.1-2 3.8 4.1 3.4 5.6 3.3-1.6 0-5.2-.8-3.6-3.4 2-3.6 1.5-4.3-.5-4.3zm-38.5.6c-3.5.1-5.8 3.4-8 4 2.2 1.3 5.3-4.2 10.7-3.5-1-.4-1.9-.5-2.7-.5zm58.6 1.2c-3.5 1.4 1 15.2 5 12.4-4.6-1.9-4.5-7.3-5-12.4zm-57.9 0-.2.1c2.1 3 6.4 8.4 4.1 13.6-6-.2-20.5 3.3-23.5 5.6-4.2 3.2 4 5.4 2.5 6.8-2.6 2.8-10.5 3.4-15.3 1.6 2.8 2.4 13.9 1.9 16.3-1.6 1.3-1.9-6.2-3.7-3.6-6 2.9-2.7 17-6 24.8-5.7.1-.3.6-.7 1-1.6 1.5-4-3.2-12.3-5.8-12.7h-.3zm68.3 5.9c-2.3 0-4.8 5.3-5.7 5.6 2.6 1.4 4.1-5.3 6.7-5.3-.3-.2-.7-.3-1-.3zm.4 1c-.6 1.6 3 2.6 1.2 9.4-1.8.2-4.4-.5-6.6 2.2-.8.8-3.2 10.7.7 14.5-5.3 5.4-15 6.2-16.2 7-.7 1.4 11.7-1 16.3-5.9 1.3-1.4 12-10.7 13-10 .7.4-1.8 6.8-1.2 7.9.5 1 5.7-4.3 6.7-6.6-1.8 2.7-5.4 6.4-5.6 5.5-.5-2.3 2.5-8.3 0-7.5s-10 6.5-11.7 8.4c-1.8-.5-2.5-9.2-.7-12.9 1.2-2.6 6.1-.6 6.8-2.8 1.3-3.8-.3-8.7-2.7-9.2zM27 95c-1 0-1.9.4-2.3 1.4-.5 1.5 2 4.9.8 6.3-1.4 1.5-3.2 1.4-5.5-1.3.6 1.3 3.4 3.6 6 1.4 1.6-1.4-1.5-4.4-.8-6.4s3.6-1 5.3.3c2.1 1.7-1.1 3.4-.7 5.3 1 4.8 11.8 5 14.2 4.5-1.4 5-.5 15.2 7.7 12-6.8 2.4-8.7-6.7-6.8-12.7-4.4 1.3-14 .2-14.6-3.5-.4-3.1 3.6-4-.1-6.2-1-.6-2.2-1-3.2-1zm85.8 2.3-2.8.4c-1.3 0-7 .2-7 .4 0 .3 5.2-.1 6.5-.2a13.7 13.7 0 0 0 3.3-.6zm-16 .7-1.6.1c2 0 3.1 0 4 .2-.2 2.3-4.1 14.4 6.7 14.3-8.1-1.9-5.8-9.1-5.5-14.5-.5 0-2-.2-3.6-.1zm-77.2 2.7c-.7 2.6-.2 9.4 1.1 11 .7.8.8-1.6 2 .2 1.4 1.8 2.4 6.7 1.4 9.2 1.8-2 .4-6.4-.6-9-1.5-3.5-3 .4-3.3-2-.3-2.4-1.2-5.4-.6-9.4zm41.9 2.5h-2c3.3.3 4.2.4 4.2 1.6 0 1.8-4.5 4.8-2.3 6.5 2 1.5 2.6 1 7.8 1.6-5.3-1-7-1.2-6.8-3 .1-1.9 3.2-3.8 2.6-5.3-.5-1-1.7-1.4-3.5-1.4zm-5.4 0c-3.6 0-7.1.5-9.8 1.7-1.5 5-2.4 11.7 2.4 13.2 2.5.9 4.8-2.6 7.2-2.1 4 .8 6 7 3.6 11 3.4-2.5 1.7-11.6-4.2-11.6-3 0-5.3 3-6.7 2.2-3.5-1.8-3-8.1-1.9-12.4a32 32 0 0 1 9.4-2zm126 2.9c-2.6 1.3-2.8 6.5-1.5 9.4-.8-2.8-.8-7.5 1.5-9.4zm-67 .8c-3.8 0-6.1 4-10 4.5 3.5 1.9 6.8-4.4 11.8-4.2l-1.7-.3zm-13.5.2c-.3.2-.2 1.5.7 2.5.8 1 2.3 1.7 2.7 1.5.2 0-1-.9-1.9-1.9-.8-1-1.3-2.1-1.5-2zm14.3.8c-.1 0-.3.2-.3.4-.1.6 2.5 2 2.4 4.8 0 1.6 1.1 5.5-3.4 5-4.8-.6-11-.8-11.4 7-.1 2.7-.9 4.7 1.3 7.8-5.7.8-22 3.4-23 5.9-1.2 2.8 4.9 3.7 4.2 4.7-.9 1.2-8 2-14.4 1.1 1.2 2.3 13.1 2.2 16-1 1.3-1.1-5.2-2.5-4.3-4.5 1.2-2.6 20.8-5.5 24-5.4-3.3-4.3-2.3-6.8-2-8.6.6-4.8 1.8-7 7.5-6.4 4.6.4 7.3 1 7.3-5.5 0-2.6-2.5-5.2-3.7-5.3h-.2zm-92.4 7.6c.6 3.6.5 5.4-.9 2.6-.5-1-1.6-2.5-1.6-.9 1-1 2.4 4.1 2.8 2.7.6-2 .1-4.4-.3-4.4zm119.2 0c-5.3 0-15.6 4-17.3 7.5-1 2 6.2 3.4 4.3 4.8-8.4 6.2-20.8 4.5-20.8 5.8 3.1.4 17-.4 22.7-6.2 1.6-1.6-5.3-3.2-4-5 2.4-3.3 12.4-6.7 17.8-6.3-.5-.4-1.5-.6-2.7-.6zm19.2.2c-2 1.8 2.2 7-.5 10.2-2.3 3-6.6.3-9.2 4.5-1.7 3-2.8 8.7 2.2 8-2.7-1.7-2.3-4.8-.6-7.5 2.4-4.1 6.3-1 8.8-4.6a9.7 9.7 0 0 0-.7-10.6zm-18.3.8c-.2 0-.3.2-.4.4-1 3.6-2.7 4.2-2.7 6 0 1 .7 1.3 3 1-.9-.3-1.2-1-1.2-1.6.1-1.5 1.6-3 2.3-4.6.1-.4-.5-1.2-1-1.2zm-87.6.2c2.8 4.1 3.1 7.5 1.2 9.5-1 1-6.1-3.7-8.4-1.7-3.5 3-1.8 10.7 1.1 13.5-4 .3-10.6-1-13.3-4-1.1-1.4 1.4-2.5.3-4.2-1.4-2.1-9.2-5.5-9.7-3.7 0 .3 0 .7.2 1.1v-.5c1.7-1.5 7 2 9.2 3.4 1.1.8-1.4 3.2-.4 4.1 3.2 3 9 5.3 15 4-3-3.4-4.7-9.5-2-12.6 1.6-1.9 6.4 2.3 8.9 1.2 2.9-1.3 1.2-9.5-2.1-10zm-3 1.2zm-31.2 0c-.6 5 3 13 7.3 14.7 3 1.3 0-2.2-1.3-4.4 1 2 3 4.3 2.2 4.1-4.2-.9-8-8-8.2-14.3zm89.2 1.4c-.5 0-.8.1-.8.2 0 .3 4.9.8 4.9.3 0-.3-2.8-.5-4.1-.5zm-60.8 6.5c-1.8.1-1.7 9.5 1.5 12 1.4 1 16-1.7 22 1.7-4-4.3-18.1-2-21.4-2.5-3.3-.5-3.6-11.4-2-11.2h-.1zM29 126.9c-2.6 0 2.5 5 2.1 6.6 1.5-2.1-3.3-5.3-2.1-6.6zm5.8 3c1.1 1.1-2.2 3 1.7 5.7-3-3.3 1.6-4.6-1.7-5.8zm127.4 2.1c-3 0-5.5 4-7.7 6.2 2.7-2 5-5 8.2-6.1h-.5zm-.7 1h-.1c-1 1 1.3 5.3-1 9-3.1 3.5-10.9 6.8-15.5 8.7a35 35 0 0 0 14.4-7c-1.4 4-3.4 7.2-.7 6.8-2.2-.6 1-5.4 2-7.9 3.5-2.3 5.5-5 9-8.1-2.2 1.5-5.7 5.4-7.8 6.5 1.9-3.4.5-8-.3-8zm9.7.7c-5.2 9.6-1.7 5.2 2.2.2-3.6 3.3-7 9.7-2.2-.2zm-62.9.7c-.4.2-1 1-.7 1.2 1.5 2 3.6 5.3 3.5 6.2-.5 6.2-4.5 4-8.6 3.5-2.9-.3-6.8 1.2-7 3.6-.4 3.7 2.8 6.5 5 6-2.5-1.7-3.6-3.7-3.2-6 .6-3.4 7-2.9 9.5-2.4 4 .7 5.9-2.5 6-5 .2-1.5-2-4.2-4.1-7-.1-.1-.3-.1-.4 0zM53 139c-.4.5 4.7 5 4.1 9.2 2.3-2.8-3.6-9.7-4-9.2zm16.5 0c1.4 1.2 1 1.8.1 2.6-2.3 2-2.4 3 1.4 4-2.4-1.9-1-2.3-.1-3.2 1.7-1.5 1.5-3.2-1.4-3.4zm-18 .3c-.3-.3 4.6 6 3.3 8.7-.8 1.7-7.2-3.8-8.8-1.7-.7 1 1.9 5.3 4.3 7.3-2.6-2.7-4.8-6.1-3.6-7 2-1.3 7 4.2 9 2.2 2.3-2.3-2.6-8.3-4.1-9.5zm113 5.3c-1.2 0-4.1 3.8-5.4 5.5 1.5-1.7 4.4-4.8 4.7-4.7.3 0-.2 1.5-.6 2.1-2.3 3.3-5.8 4.6-7.9 7.3-1.4 1.8-3.1 3.4-3.3 5.6.3-1.5 2.3-3.9 3.7-5.3 2.7-3.2 5-4.4 7.5-7 1-1 1.8-3 1.4-3.4h-.2zm-18.2 1c-5.6 0-17.4 5.5-16.8 7.4.3 1 3.7 1.5 2.9 2.3-3.7 3.7-15.6 4.5-16.7 5.5 6.6-.5 15.3-2.5 18.9-6 .7-.8-3.9-1.6-3.4-2.5.8-1.2 10.2-6 16.1-6.7h-1zm-.1.8c-.7-.3-7.3 7.7-1.8 4.9-2.3-.3 3.2-4.3 1.8-5zm-98.9 1.4c1.3 4 4 7.5 7.5 6 2-1 9 3.3 10.4 8-.2-4-6.6-9.5-10.5-8.7-4 .9-3.7-.1-7.4-5.3zm-8.3 3c-.7 0 2.5 2.4 4.1 4.4.3.4-1.6-1-2-1 .4.4 3.2 2 2.9 1.5-.7-1.3-4.9-4.3-4.2-4.2 1.3.2 11.4 5.1 8.9 6 3.4-1-6.6-5.6-9.2-6.5l-.5-.2zm71 .5c-2.9.2-5.7 2.2-8.5 3.1 2.5.8 6-3.2 11.5-2.7-1-.4-2-.5-3-.4zm1.2 1.3c-.2 0-.4.2-.5.4 1.5 1.4 3 2.4 3.3 5 .2 1-.3 1.7-.9 2.6.7.3 1 0 1.6.1.8-1 1.1-2.3 1-3.3-.5-1.9-3-5-4.5-4.8zm-53 2.5c7.5 8.3 8 10.9-9.3 3.2 12.2 8.3 22 7 9.2-3.2zm-10.6.8h-.2c-.4.2-.5 1.5.5 2 .3-.7 0-1.9-.3-2zm63.5 5c-6.6.2-17.5 2.7-20.7 3.8-2.2.7 4.7 3 3.5 3.2a33 33 0 0 1-12.1.3c2.7.9 10.7 1.3 13.9-.3 1.5-.7-5.1-2.3-3.7-2.7 5.8-2.2 12.8-2.8 21.6-4.4h-2.5zm39.3.7c-2.8.5-14.8 9.8-6.9 3.2-9.7 7.4 5.6-3 7.4-3.1h-.5zm-36.8.3c-2.2 0-2.4 2.4-2.4 4 0 1.7 2 3 4.6 2.4-1.8-.8-2.7-1-2.8-2.9-.1-1.6.2-2.3 1-3.5h-.4zM67.8 163l-2.3.1c.2.6 12.5 0 18.7 2.4-3-2-12-2.6-16.4-2.5zm-4.1.9h-.2c-1 .5 2 4.3 4.9 5.6-3.4-2.3-4-5.6-4.7-5.6zm1.5.3c1.7 3.8 3.6 6 8 5.7 3-.1 6.8.3 9 2.6-2-2.5-5-3.2-9.8-3.2-3.3 0-6-2.9-7.2-5zm61 0c-2.8 0-8.1 3.4-9.8 3.5 2.3 1 5.8-2.8 10.7-3.3l-1-.2zm16.3.3c-3 .5-10.7 3.1-13.1 5.5-.4.4 1.9.3 1.5.6-2.8 2.3-12.3 3.3-14.4 4.7-1 .6 2.1.7 1.3 1.1-2.1 1.2-8.2.7-10 2.4 1.4-.9 10.1-1.7 11-2.5.7-.5-2.3-1-1.4-1.3 3.6-1 11.7-2 14.8-4.8.6-.5-2.9 0-1.2-1 3.6-1.8 8.6-3.8 11-4.4.7-.2-1.9 1.5-2.6 2.4.9-.5 3.9-2.9 3.1-2.7zm-62.2.4c1.9 1.4-3.7 2.6.8 3.7-1.7-2 3.9-3-.8-3.7zm45.8.5c-.4 0-.8 0-1.3.3 2.3.9.6 3.7-1.8 3.8-2.4 0-4.3-.1-6.5 1-2 1-3.3 2.5-2.6 4.6-4 .5-12 1.6-14.7 2.3-.4 0 .2.2.9.4-.3-.2 0-.4.3-.5 2.7-.8 10.8-1.5 15.4-2-.4-1-1-2.1.4-3.5 1.4-1.5 3.6-1.7 6.7-1.9 1.7 0 3.5-1 4.5-2.5.5-.9-.1-2-1.3-2zm-48.3 5.2c1 .8 2.8 2.4 1.9 2.5-2.2 0-8.9-2-8-.7 3.8 5 15.4 3.8 21.7 5-5.3-1.4-17-.5-20.3-4.5-1.6-2 7.3 1.8 8 .5.5-.8-2.1-2.2-3.3-2.8z"/><path fill="#fff" stroke="#fff" stroke-width=".1" d="M133.2 22.9c-1.3.4-1.8.4-2.4 1.1.4.5 1.5 1 2 1.2 4.4 2.5 3.6 2.2 1.7 4 3.5-1.8.9-2.6-1.6-4L131 24l2.2-1.1zm-14.8 4-.3.1c1.4 1.3 6 7.6 8.3 6.2-2.6.2-5.5-4-8-6.3zm26.7 1.6c.6.7.5 1 .2 1.2 1.3.1.2-.9-.2-1.2zm-14.8 3.4c2 .6 3.6 1.6 5 3.3 1 1.2 1.8 2.7 1 3.8 2.1-1.1.6-2.6-1-4.2a8.8 8.8 0 0 0-5-3zm-.8.3c-.7.6-1.7 1.6-1.4 1.9.6.6 1.4-.7 1.4-2zm1.7 6.4c-.6 0 0 2.4.9 4.3a17 17 0 0 0 5 6.1c0-.3.1-.5.3-.7-3.8-3.4-3.4-4.2-4.8-6.3-1.5-2.1-.6-3-1.3-3.3h-.1zm29.2 2c.4 1-.6 1-1.4 1 4.3 4.2 7 7.4 7.3 9.2-.3-2.5-4.3-6.5-6.6-8.9 1.2-.1 1-1.1.7-1.3zm-3 .7c-3 2-4 2.8-2.4 4.2-1-1.3.4-2.7 2.3-4.2zm-8.2 4.7c3 1.2.9 5.7 3.2 5.3-1.6-1 .7-4.3-3.2-5.3zm-4.3.2c-5.5 1.8-8.2 5.4-11.1 6.3 1.4-.3 3-1.3 4.5-2.5 2 1.1 3.6 2.8 4.6 4.8 1.2 2.4 3.2 5.6.7 7.2 3.3-1.6 2.3-4 .4-7.2a25 25 0 0 0-4.7-5.2c1.9-1.3 3.4-2.1 5.6-3.4zm11 .1c3.3 2.2 3.3 3.9.4 5.8 4.3-2.4 2.3-4-.3-5.8zm-35.4 1.2c3 2.1-2.2 5.4 1.7 5.7-2.2-1.3 3.1-4.8-1.7-5.7zm-28.8.1c-2.2 7-.6 10.4 1.7 13.2 2 2.4 6 8.1 2.6 12.7-2.4 3.4-7.4-1.2-10.9 1.2-3.3 2.1-2.6 6.8 0 10 4.2 5.2 9.2-4.6 12.3-1.8 5.5 5.1 6.1 11.1 4 14.4-.9 1.4-1.5 6.3-1 9.3s2 3.9 4.9 5.7c3.4 2.2 7-3 10.6-4.4 3-1.2 7.9 9 1.3 11.4 7.2 1 5-13.3-1.3-12-4.5.9-7.3 6.2-11.4 4.3-5-2.3-4.1-9.4-3-13.6 10.5-1 18.9.1 24-6.4 1.6-2.2-7.1-4.6-5.2-6.2 2-1.5 7.7-3.7 7.7-3.8-3.7.7-5.4.8-8.6 3.7-2.3 2 6.1 4.2 4.5 6.1-4.7 5.6-13.6 6.2-21.3 5.7 1.3-5.3.9-9.1-3.9-13.9-3.8-3.9-9.2 4.7-12 2.2-3.5-3-3.5-7.8-2-10 2.5-3.4 8.7 2 12.6-1.6 3.2-3-.9-9-2.6-12.9l7.4-.9c-3.2.3-6.4.3-8.3.3-2.3-4.4-3.4-7.4-2-12.7zm22 .5c-2.6.8-2.5.5-5.2 2-3.7 2 4.9 3.4 3.5 5.7-1 1.7-2.9 2.8-5.2 3.4 2.6-.5 4.8-1.2 5.8-2.1 3.7-3-7.3-5.5-3.5-7.1l4.5-1.9zm-6.9 11.1zm57-8.4c-.5 0 1 3.3 1.9 4.4.6.8 2.4 3.1 2.5 2.8.1-.2-1.6-2.1-2.4-3.2-1-1.2-1.8-4-2-4zm5.6 5.7c.1 2.2 0 2-.4 2.7 1 .5.9-1.6.4-2.7zm1.7.8zm2.4 4zm-36.8.8c-1.4.3-1 6.7 3.9 9.1-5.9-4.8-2.2-8.6-3.6-9 0-.1-.2-.2-.3-.1zm39 4.3 1.4 4.8c.4 1.5 1.3 5.2 2.3 4.6-1 .3-1.8-3.1-2.2-4.8l-1.5-4.6zm-1 .5c-.7.6-1.7 1.9-1.8 2-1.5 1.9-2 3.4-1.2 4.9-.5-1.1.4-3.2 1.2-4.4l1.9-2.5zm-25.8 1c-.2-.1-.3 0-.3.2 0 .8 6.2 6 5.7 12 .8-.7.4-.5.8-.9.4-5.1-4.8-11.1-6.2-11.4zm-2.8.8c-.8 0-3.7 3-3.2 3.3.5.2 3.9-2.8 3.3-3.2h-.1zm25.7 5.3.6.8c1.9 2 1.7 2 1.3 3.4a8 8 0 0 1-2 3.3c3.2-3.2 3.1-5 .3-7.3l-.2-.2zm-5 1.2h-.2c-.4.1 1 .4.8 3-.1 1.3-.6 3.1-.1 3.8.3-.1 0-.2.3-.1-.5-1.5 0-2.6.2-3.7.2-2-.5-3-1-3zm-3.3.4c-.8.1-4.1 2-9.3 5.7-.2 8.5 2 13 3.8 12.5.5-.1-2.5-1.6-3-11.9 7-5.5 8.8-5.8 8.7-6.2h-.2zm16.3.7c-.1 0-.4.5-.2.8.4.7.2-.7.2-.8zM134.2 80c-1.5.1-3.1.6-4.4 1 2.5-.4 5.9-.8 6 .5 0 1.9-2.6 4.7-1.4 5.8 3 2.6 13.5.8 18-3 0-.3.3-1 .1-1.1-2.3 2.5-12.8 6.8-17 4.3-1.7-1 2.5-4.2 1.8-6-.4-1.3-1.7-1.6-3.1-1.5zm47 2.8zm.1 3.5a274 274 0 0 1 .3 3.2v-1.1l-.3-2zM166 89.2c-.2.5 1.8 3.1 1.9 5.7.2 5.4-2 5.3-1.5 5.7.4.4 2.5-1.7 2.4-5.6-.1-3.1-2.5-5.8-2.8-5.8zm-2 .8c-1.5 1.3-2.7 3-3.9 4.6 2.1-1 3-2.8 3.9-4.6zm18 1.7zm-.6 4.4c-1 2.3-2 3.9-3 6.4-.6 1.8 1 2.7 1 3.6 0 .4-.1 1-.4 1.4l.5-.8c.3-.7-.5-1.6-1-2.9-.3-1.4 2.1-5.2 2.9-7.7zm-17.4 4.2c-.8 0-1.6.2-1.6.3 0 .4 3.2.5 3.2 0 0-.2-.8-.3-1.6-.3zm-2.1.4c-1.9 0-2.3 4.7-2.3 6.8 0 2.5.4 6.3 1.6 6.9.1-.3.7-.6.8-.9-1.7-1.3-1.3-3.8-1.5-5.8-.2-2.4 1.7-7 1.4-7zm12.7 5.5c-.6.2-.1 1.6-.7 3.4-.5 1.4-1.3 3.5-.6 3.8 0-1.3.8-2.8 1.2-4.3.3-1.6.7-3 0-2.9zm7.2.5c-1.2 1-2 4.9-1.2 7.3-.5-2.6 0-6.1 1.2-7.3zm-10 1c-3.3 2-7 4.8-9.9 7.5 3.9 6 2 11.8-2.7 14.1 6.9-2.3 6.8-11.6 3.8-14.5 2.2-2.1 8-6.2 8.7-7.2zm6.2 1.6zm-132.6 6.2c1.7 3 3.4 3.6 5.3 3.1 2.2-.5 4.3-2.6 5.8-2 2.6 1.3 4.4 6.6 2.4 9.6-2 3-6-1.7-9.2-.8-3 .9-.8 11 1.8 13a18.5 18.5 0 0 1-15.6-4c1.2 3.7 10.9 6.7 15.8 4.5 3 2.8 6.3 8.2 4 10-2 1.6-7.5-3.1-8.8-1.9-.8.8 2.9 6.9 5.5 7.6 1.8.6 3.6-1.2 6 1-1.9-2.5-3-1.5-5.4-1.4-3.3 0-6.5-6.3-5.8-7 1.2-1.2 6.6 4.6 9.3 1.8 2.2-2.2-2-7.3-3.9-10.3 7.3-.3 17.6-1.6 17 2.6.8-.8.9-1.4-.4-2.6 4.8.2 2.9 3.2 1 4.5-1.3.8 1 2.5 2.1 2.9 4 1.4 12.4 1.1 16.7-1.9 1.2-.8-6-4-5-4.7 5.6-3.4 16.1-4 22.7-5.2-6 .5-17.3 1.6-23.3 4.8-1.4.8 5.7 3.6 4.5 4.8-1.9 1.7-6.9 2.6-11 2.5-4.2-.2-7.7-1.6-5.9-2.8 9.1-6.5-8.5-5.9-18.7-5.4-3.6-1.9-4.9-11.6-2.6-12.4 2.9-.8 7.5 4 10 .5 2.2-3 .4-9-3.7-10.1-1.8-.5-3.8 1.5-5.5 2-2.4.8-3.8-1-5.1-2.7zm115.5.6c-3.7 4.6-10 6.6-13.3 7.2 7.4-1 11-4.5 13.5-6.5 0-.9 0-.5-.2-.7zm-16.3.3c1.8.9-2.7 5.8-2 5.9.7 0 5.1-5 2-5.9zm-4.4.8c-4.2.9-8.5 2.1-11.5 4.6-3.1 2.6 5.8 3.6 3.3 5.8-6 5.6-15 5.9-23 6.8 2.7 3.4 4.9 5.6 3.6 9.4-2 6-10.1.5-14.1 3.9-2.4 2-.5 5.9 2.5 6.7-1.8-1.4-4.5-4.4-2.4-6.2 3.7-3.3 13 1.5 15.3-3.9 1-2.4-2.3-7.5-3.5-9.4 8.1-.6 17-2.5 23-7.6 1.5-1.4-6.6-3.4-4.3-5.2 3.7-2.8 9.5-4.4 11.1-4.9zm-31.7 2.3c-.5 0-1 .4-1.4 1.1l1.4-1.1zm-1.5 1.2c-2.8 3.4-2.8 10.3 1 13-3.6-3.6-2.6-10.2-1-13zm48.8 8.6c-2.7 1-4.4 7-1.9 8.5.5-1.4-1.3-4.4 1.9-8.5zm7 3.3h-.2c-.7 1 1.6 4-.6 8.1 3-1.6 1.7-8.2.8-8.1zm9.2.8c-.2-.1-2 3.6-3 5.3 1.3-1.6 3-5.2 3-5.3zm-11.4.1c-2 1.4-3.8 3.5-5.8 4.9 3-1.4 4.3-3.5 5.8-4.9zm9.3 1.2c-3 2.5-6 5.9-9.3 8-.8 2.1-3.6 6.6-2 7.4-.6-1 1-5.1 2.3-7.3 2.8-2.4 7-6 9-8.1zm-11 9.6a42 42 0 0 1-13.4 7c4.6-1.5 8.4-2.7 13.3-6.6l.2-.4zm6.1 0c-.2 0 1 1.7-4 6 3.7-2.4 5.3-5.8 4-6zm-17.7 1.5a2 2 0 0 0-.4.1c1.5-.1-2 3.3-2.7 4.8 1.6-1.3 4.8-5.2 3-4.9zm16.3 0c-.7.3-4.3 4.1-4.3 4.2a27 27 0 0 0 4.3-4.2zm-18.2.6c-3.4 1-11.1 3-13.5 5.8-.6.8 4 1.6 3.1 2.4-4.7 4.7-15.7 6.2-20.1 6.3-1.4 2.5-2.7 6.2 1 6.9-2.6-1.4-1.1-4.3-.5-6.3 3-.6 16.1-1.8 20.6-7 1-1.3-4.1-1.2-3.6-2 1.4-2.2 8.6-4.5 13-6zm-33 5.7c5.3 4.6 3.8 6.9 3 8.3l2.1-1.1c.6-3-2.6-6.2-5.1-7.2zm-2.1.1c-3 .2-5 2.6-9.1 3 4.7.2 6.4-2.3 9.7-3h-.6zm47.6 1c-.6 0-3.7 3.5-5.4 6.4 2.3-3.5 5.5-6.1 5.4-6.4zm-45.7 8.5c-6.6.6-15 1.9-19.8 3.4-1 .4 5 2.2 4 2.7a25.5 25.5 0 0 1-13.1 1c3.8.7 11.2 1 14-.8.8-.6-5.5-2.5-4.4-2.8a221 221 0 0 1 19.3-3.5zm31.5 2.4s-3.7 2.8-3.6 3a13 13 0 0 0 3.6-3zm-16.7 1h-.8c2 .7 2.3 2.3-1 4.4-1.3.9-6 .3-8.4 1.9-1.7 1.1-1.5 3.6-.7 3.3.5-.2-.2-1.9 1.1-3 2.8-2.2 6.4-.7 9.3-2.4 2-1.1 4-4.2.5-4.2zm-44.9 0c1.9.8-1.8 2.3-.6 3.1 0-.6 4.2-1.8.6-3zm42.7 0c-.4 0-2.1.7-3.8 1.6-1 .5-2.5 1.2-3.3 1.2l-1.3.2c.5.4 3.7-.6 5.7-1.6 1.9-.9 2.7-1.1 2.7-1.3zm16 .2c-3.4 1-7.3 2.8-10 4.3-.8.3 1.9 0 1.5.6-1.4 2.2-15 4.6-15 5 0 .3 1.6.5 1.8.8.2.7-1.9 1-3 1.2 1.5.1 4.3-1.1 3.5-1.3-.9-.2-1.3-.6-1.4-.8-.3-.4 12-2.4 15-5 .4-.4-1.9-.5-1.6-.7 1-.9 8.7-3.8 9.2-4zm-59.3 3 .8.2c-.3 0-.6-.2-.8-.3zm-2.2 2.7c1.2.7 2.9 2.4 2 2.7-2.3.7-6.2-1.2-8-1.3-.9 0 1.4 1.7 2.5 2.1-.6-.3-2.6-1.8-2-1.8 1.7.1 6 2 8.2 1.3 1.4-.5-.9-2.1-2.7-3zm28 5.4c-4.4.5-8.3 1-7 1.3-.1-.3 3.3-.9 7-1.3zm-24.6.2c4 .4 8.4 1 8.5.9 0-.2-4.6-.5-8.5-1zm10.6 1.1c-.3 0-.6.4-.6.4.2 0 1.2-.2 1-.3h-.4zm10.3.1c.8.5-.6.7-2.8.8 2.2 0 4.2-.2 2.8-.8z"/></svg>