<?xml version="1.0" encoding="UTF-8" standalone="no"?><svg version="1.1" xmlns="http://www.w3.org/2000/svg" xmlns:xlink="http://www.w3.org/1999/xlink" style="width:100%; max-width: 360px; height:auto; max-height: 360px;" viewBox="0 0 360 360"><g fill="#fff"><path d="M126.7 76.1c3.6 3 12.3 6 12.3 6s-1-5.9-5-9.3c-4-3.4-18.8-15.9-19.2-17.8-.5-2-10 0-5.8 4 0 0 14.1 14.1 17.7 17.1M140.7 72.2S134 59.5 134.6 51c0 0-1.2-4.3-3.1-1.5 0 0-1.6 2.4-3.2-1.4-1.7-3.9-6-1-5.4.1 0 0 12.6 21.5 17.8 24.1M152.3 74.8s1.5-2.4-4.8-16c-6.2-13.8-7.9-17-7.7-18.6 0 0-4 .3-3.8 4 0 0 6.9 23.5 16.3 30.6M158 67.2s-.1-15.2-3-23.6c-3-8.4-3.6-6.5-4.5-2l-1 2.1-5.7.2s9.4 7.4 14.1 23.3M163.7 55.8s5.3 17.2 6.5 18.5c0 0 2.7-2 1.5-16.3l-5.3-20.6s-2.7-8.4-4.9-2c0 0 2.8 13.9 2.2 20.4M179.8 63s1.6-.4 2.9-5.3c1.2-4.9.5-16.4 1.2-18.7 0 0 5.7-11.7-3.2-3.7 0 0-.6 1.7-1.7 1.7 0 0-8.8-4.2-6.9.2 0 0 8 2.8 7.7 25.7M194.3 61.1s4.9-21.8 6-22.6c0 0 2.1-8-4.2-4 0 0-6.7 20.3-6.8 23 0 0-.6 7.3.3 11 0 0 1.2 7 4.7-7.4M200.6 62.3s-2 14 3.8-2c0 0 5.8-10.4 8.9-11.8 0 0 9.3-8.4-.2-5 0 0-2.4 2.3-3.2 1.4 0 0-1.1-11.1-5.4-4 0 0 1.3 4.9.2 9 0 0-3 8.7-4.1 12.4M216 64.6s4.2-8.5 6.9-15c0 0 6.5-11.4-1.5-6.3 0 0-12.7 18.9-14.6 30 0 0-.6 7.2 9.3-8.7M218.2 72s-5.2 6.3 6.2-2.7c0 0 25.3-31.8 7.5-20 0 0-2.9.7-4.6-.4-1.7-1.1-.5-.8-1.7 1.6 0 0 3.5 11.8-7.4 21.5M222 79.7c-5 5.5 6.6-1.7 7.2-1.8.6 0 20-11.3 22.6-16 2.6-4.8-.3-8.8-4.7-7.2-4.5 1.6-25.1 25-25.1 25"/><path d="M314.8 138.8c-3.2 1.6-17.3 10.2-17.5 13.4-.2 3.2-7.6 20.4-9.8 26-2.2 5.7 6.5 4 6.5 4 15 .6-6.2 7.5-6.2 7.5-6.7 1-12.3 9.7-12.3 9.7-7.2 4-2.8 5.1-2 5.4 1 .2 5.2 3.6 5.2 3.6 1.4 8.2-8.7 3-8.7 3-6.6-3.7-13.5 2.6-13.5 2.6-15.3 6.3-5.6 8.7-5.6 8.7 5.7 5.1-3.4 4.2-3.4 4.2-13-5.2-23.4 2.7-23.4 2.7-9.9 4.4-.6 6.8-.6 6.8 3.7 8.4-5.2 3.6-5.2 3.6-5.7-4.7-13.8-.6-13.8-.6-27.4 6 6-13.5 6-13.5 13.1-5.4 43.7-23.2 43.7-23.2 13.3-6 20.8-18.8 27-29.8 6.1-11 15.8-50.9 15.8-50.9 8.3-20.4 8.2-.2 6.4 8.3-1.8 8.6-3 8 4.9 5.5 7.8-2.6 9.7 1.5 6.5 3m-131.7 50.3c-6.8 6.1-6.9 2.3-6.9 2.3s-.7-2.6-11.7-7.3c-11-4.7 1-5.3 1-5.3s1.8 0 5 2.5 9.7 5.9 12.5 2c2.8-4 9.4-5.3 9.4-5.3 10.4 1.2 2.6 7 2.6 7s-5-2-11.9 4.1m1.6 34.6c-6.6 5.5-2.5 14.4-2.5 14.4 4.8 4.3 2.6 8.2 2.6 8.2-5 4.2-3.7 15.3-2 17.9 1.8 2.6 2.7 9 2.7 9-5.4 6.6-4 16-1.8 20.3 2 4.3-1.5 8.8-1.5 8.8-4.3 11 1.6 14.3.5 16.7-1.1 2.4-10 .3-10 .3l.7-122.8 4.7-.2c7.3-1 5.3 3.7 5.3 3.7-3.4 1-1.9 14.1-1.9 14.1 3.4 5.2 3.2 9.6 3.2 9.6M157 151.2s1.1-8 5.7-2c4.5 6 4.3 6.4 1.8 6.2-2.5-.2-3.3 15.3-7.5-4.2m-1.9 18.2s-4.1 12.7-4.9-4.2c0 0 .2-12.4 4.8-.2 0 0 5.6 7.1.1 4.4m-7.5-11.4c-1.4-.4-3 11.1-6.5-2.6 0 0 2-11 6.4-3.4 4.4 7.7 1.6 6.3.1 6m-4 17.8c-2.9-2 1.8-3.5 1.8-3.5s0-1.4 2 0-1 5.6-3.8 3.5m1.1-45.6c5.2 4.5 1.5 5.1.2 5.8-1.4.6-3.4 6.8-4.8-3.4 0 0-.6-7 4.6-2.4m-5.7 19.3c-2 3.7-4 5.8-4.8-2.5 0 0 2.1-8.7 4.6-3.6 2.4 5 2.1 2.4.2 6.1m-.7 17.7s-5.6-.4-5.4-3.7c.2-3.4 3.2-.8 3.2-.8 2.8.5 2.2 4.5 2.2 4.5m-9.4-30.5c3-2.5 7.1 2.5 3.4 5.2-3.8 2.8-3.4-5.2-3.4-5.2m-3 16.4c-1-4.3 3-2.5 3-2.5 1.8 8.9-2 6.7-3 2.5m-3.9-9.7c-1-4.3 3.2-2.5 3.2-2.5 1.7 8.9-2.2 6.7-3.2 2.5m11.6-19s2.1-2.5 3.1 0c1 2.4-.3 5.2-2.1 4.5-1.8-.8-2.4-3.4-1-4.5m7.3-10.8c2.9-2.5 7 2.5 3.3 5.3-3.8 2.7-3.3-5.3-3.3-5.3m7-9.9s2.1-2.5 3.1 0c1 2.4-.3 5.2-2.1 4.5-1.9-.8-2.4-3.4-1-4.5m5.8 15.4c6.2 4.4 1.4 4.6.2 4.8-1.3.1-3.2 6.5-3.7-1 0 0-2.7-8.2 3.5-3.8m4.2-8.4s2.8.2 5.8 1.6c3 1.4-2 4.5-6.7 2-4.7-2.6 1-3.6 1-3.6m7.2-12c3.7.8-4.5 3.6-4.5 3.6-4.5-3.6.8-4.3 4.5-3.5m8 4.1c-1.8 7.7-3 4.8-4.9 2-1.9-2.8 4.8-2 4.8-2m-1.2 18.7c-2.7-.7-3 9.5-6.1-2.8 0 0-2.3-5.2 3.6-1.5 6 3.8 5.1 5 2.5 4.3m9.5 4.3c7.2 7.7 3.6 5.4.1 5.5-3.5.1-4.5 9.8-7-1.8 0 0-.4-11.4 6.9-3.7m1.5-15.9c6.4 5.7-5.7 6-6 .2 0 0-.4-5.9 6-.2m1.4-12.5c1.5 1.6-2 2.8-3.8 2.3-2-.4-2.8-4.3-2.8-4.3 1.6-.4 5.2.4 6.6 2m3.5 19.3c1.1-2.5 2-.5 4.8 1.2 2.7 1.8.7 4.3-4.6 6.4-5.2 2-.2-7.6-.2-7.6m-.4-14.4c2.6-2 7.4 1.1 3.3 4.9-4.2 3.8-3.3-5-3.3-5m12.6 24.8c4.2 7.2-1.2 2.5-2.7 7-1.5 4.6-6.3-1.3-4.4-4.9 0 0 3-9.2 7.1-2m-.8-27.7c-2.3 4.9-4.2-2.2-4.2-2.2s6.6-2.8 4.2 2.2m.5 15.5c-5.8 7.1-4-7.8-4-7.8 1.8-.5 9.8.7 4 7.8m6.7 21.9c3.6 7 1.5 7.9.2 6.4-1.3-1.4-6.4 9.6-4.7-4.2 0 0 1-9.1 4.5-2.2m-3.5-20.5c1-3.1 6.3-.9 3.1 6-3.2 6.9-3-6-3-6m2.4-15.1c2-.3 4.5 3.8-.5 4.4-5 .5.5-4.4.5-4.4m9.8 25.4s1.5 5.6-1.7 5.5c-3.2-.1-3.2 6.5-3.8-2.5 0 0-3.2-10.3 5.5-3m-2.1-12c-3 6-4-5.4-4-5.4 1.8-.3 7-.4 4 5.5m-.5-15.9c3.8 2 1.6 5.1-1 4.8-2.5-.4 1-4.8 1-4.8m7 23.7c-2.5 5-4.7-5.2-4.7-5.2 2-.9 7.3 0 4.7 5.2m-.6-11.2c2.9 1.9 1.1 2.4 0 2.2-1-.3 0-2.2 0-2.2m7 17.9c2.7 5.6.2 6-2.3 5.7-2.4-.3-2.7-2.7-2.7-5.6 0 0 2.5-5.8 5-.1m.9-7l.8 2.8c-1.7-.1-.8-2.7-.8-2.7m7.4 21.8c-2.5 1.4-3.5 3.5-3.5 3.5l-4.3-2.2c7.3-5.6 10.4-2.7 7.8-1.3m-3.7-11s3.5-1.8 3.7-1.6c.2.2-1.5 4.4-3.6 4.3-2.2 0-.1-2.7-.1-2.7m-4 24.3c-8.5 3-.2-4.2-.2-4.2 3 .2 8.5 1.3.1 4.2M217 145s4.3-12.2 5.6-.7c1.4 11.5 0 6 0 6s-5.5 4-5.6-5.3m4 22.5c-1.4.4-10 5.6-6.8-3.9 0 0 6-4.5 6.7-1.6.6 2.9 1.5 5.1.1 5.5m-14-15s1.4-9.2 6-4c4.4 5 3.4 10.9 1.3 9.4-2-1.5-2.7 8.7-7.3-5.4m4 22c-.8 3.3-9.6 5.3-7.9 3.2 1.7-2 1.6-3.6 1.6-3.6s7-2.9 6.3.4M193.6 153s-.7-11.2 6.6-1.8c0 0 2.3 8.2-2.3 6 0 0-5.4 11.2-4.3-4.2m-2.2-8.6c-4.2.2-5.8 13.4-7.7-5.3 0 0 3-8.8 7.6-.2 0 0 4.4 5.4.1 5.5m-7.2 18.7s1.4-6.5 5.2-.1c3.7 6.3 4.3 9.2.2 8.5-4-.8-5.1 2.5-5.1 2.8 0 .2-7.3 11-.3-11.2m-9.7-10.6s1.7-12.6 7.5-3c5.9 9.4-2.1 7.9-2.1 7.9s-3.4 11-5.4-4.9m-.8 15s5.5 7.2-1.9 5c0 0-2.7-2.2-3.8.6-1 2.8-4 4.2-2.7-4 0 0 .8-21 8.4-1.6m-2.6-31.3c4.9 7.2 3.7 6.1.2 6.3 0 0-4.6 12.6-5.5-3.8 0 0 .4-9.7 5.3-2.5m-14-6.3s-.2-9.5 5.2-3.6c5.5 6 4.3 5.6 1.5 6.7-2.7 1.2-7.2 8.1-6.8-3m-2.7 8.8c5.9 6.2 3.4 4.6 0 4.2-3.3-.3-6 14.7-5-2.6 0 0-1-8 5-1.6m44.9 26.8s2.3-9.7 7-2.5c0 0 3.5 11.5-1.8 7 0 0-9 7.5-5.2-4.5M158 239s-13-4-17.2.5c-4.3 4.5-9.1-1-4-4.3 0 0 5.8-2.5 0-5-6-2.5-10.9-8.5-29.5-4.4 0 0-5-.5 2.8-5.4 0 0 4-2.4-2.2-4.6 0 0-12.5-6.1-13.4-7.3 0 0-12.6 2.5-14.9 3.4 0 0-5.3.1 1-5.3 0 0 5.5-3.7 7.3-3.7 0 0-1.9-2.6-4.6-4.9-2.7-2.3-1-7.6-23.5-14 0 0-2.8-3.4 4.5-4.2 0 0 2.3-1.8 4.8.7 0 0 3.5.5 1-4.4 0 0-10.6-22.9-12-30.4 0 0-10.2-8.2-13.7-9 0 0-3.7-4.6 4.3-2.2 0 0 13.6 8.3 7-4 0 0-4.4-17.2-2-19.3 0 0-1-13.5 5.2-.1 6.2 13.3 12.2 58.8 24.2 69.6 0 0 11.7 23.1 46.4 34.5l29.3 16.7s12 7.3-.8 7.1M326 82.3c2.9-4.5 14.2-20.3 15-22.3 0 0 1-3.3-.2-7.2 0 0-6.4-3.5-6.3 5.1 0 0-6.2 10.6-13 15.9 0 0-15.8 10.5-18.5 16.3 0 0-7.8 13.8-12.7 23.4 0 0-11.5 9.5-16-9.8 0 0-.4-6.1-.2-9.5 0 0-3.9-7.9-6.4 1.4 0 0-3 7.2-.3 17 0 0 .3 6.3 6 13.6 0 0 5.6 8.8 5.1 20.1 0 0-3.9 12-11.5 2.9 0 0-4.4-2.7-4.6-10.9 0 0 0-2.9-2-2.5 0 0-3 .6-2.3 6.9 0 0-1.2 4.4 5 20 0 0 3.3 20-3.9 24.9 0 0-3.8 4.1-6.5 5-2.7.9-6.7-2.5-6.7-3.1 0-.6-.4-4.7 2-7.3 0 0-.4-5.5-3 .5 0 0-10 21-12.5 22.4-2.4 1.5-5.6 5.6-12.5 3.1 0 0-7-3.5-2-11 0 0 1.5-5.5-3.8-.6 0 0-6.3 12-6.8 18.3 0 0-2 5.1-3.6 7 0 0-1.9 2.6-6.6 2 0 0-11.4-7.8 3.6-19.8 0 0 3.2-3.1-1.4-2 0 0-5.6-.4-7-5.3-1.6-4.8 3.7-6.7 5.2-7.1 1.6-.4 6.5.2 6.5.2s2.7-.5 1-1.4c-1.8-1-4.5-5 2.5-7.3 0 0 8.4-2.1 12.4 1.8 0 0 7-.2 2.1-2.8 0 0-11-2.8-1.4-8 0 0 6.4-2.8 11 .2 0 0 9.6-1.5 2.7-3 0 0-8-1.3-5-7.9 0 0 5.6-4.4 11.7-3 0 0 7.3-.2.7-3.5 0 0-10.7-2.8-2-8.3 0 0 4.4-3 9-2.2 0 0 6.8-2.6-1.5-4 0 0-3.7.8-6.7.7 0 0-12.1-6.5 5.8-11.3 0 0 5.2-5.2-4.2-2.6 0 0-2.1 2-5.5 2.4 0 0-8.5.4-2.3-8.7 0 0 5.3-4.6 6.8-4.8 0 0 2.3-6.4-3.7-3.4 0 0-3.5 3.6-5.6 5 0 0-3.5 4.1-6.6-1.3 0 0-5.5-4.7 4.3-8.2 0 0 3.7-4.6-2.4-2.8 0 0-7.7 6-9.5-.3 0 0 1.5-9.9 13.3-14.7 0 0 7.5-.8 11-3.2 0 0 3.8-6.3-4.4-3.6 0 0 .8 1-3 1.4 0 0-8.4.6-11.3 2.5 0 0-10.5 5-12 7.2 0 0-3.6 3.2-1.7-2.2l2.2-9.3s.5-4-2.6 0c0 0-8.6 9.4-9.2 9.7-.6.3-3.2 2.2-2-5.2 0 0 .4-8.3.6-8.8.2-.6.8-4.5-3-.2-3.6 4.4-9.4 11-9.4 11s-6.8-12.4-6.9-16.4l-5 18s-5.7-6.7-9.3-11.2c-3.6-4.5-3.1-.6-3 0 .2.6.5 8.9.5 8.9.9 7.5-1.7 5.4-2.3 5.1-.6-.3-9-10-9-10-3-4-2.6 0-2.6 0 .4 2.5 2 9.3 2 9.3 1.7 5.5-1.8 2.2-1.8 2.2-1.5-2.3-12-7.6-12-7.6-2.8-2-11.3-2.8-11.3-2.8-3.8-.5-3-1.5-3-1.5-8.2-3-4.5 3.4-4.5 3.4 3.4 2.5 11 3.5 11 3.5 11.7 5.3 13 15.1 13 15.1-2 6.4-9.6 0-9.6 0-6.2-2-2.6 2.8-2.6 2.8 9.8 3.8 4.1 8.3 4.1 8.3-3.2 5.4-6.7 1-6.7 1-2-1.4-5.5-5-5.5-5-6-3.2-3.8 3.2-3.8 3.2 1.5.2 6.7 5 6.7 5 6 9.4-2.6 8.7-2.6 8.7-3.4-.5-5.5-2.6-5.5-2.6-9.4-2.9-4.3 2.5-4.3 2.5 18 5.4 5.4 11.4 5.4 11.4-3 0-6.7-1-6.7-1-8.4 1.3-1.6 4-1.6 4a14 14 0 019 2.5c8.6 5.8-2.3 8.3-2.3 8.3-6.7 3 .6 3.5.6 3.5 6.3-1.2 11.8 3.5 11.8 3.5 2.7 6.5-5.3 7.6-5.3 7.6-7 1.4 2.6 3.1 2.6 3.1 4.8-2.8 11.2 0 11.2 0 9.6 5.7-1.7 8.2-1.7 8.2-5.1 2.4 2 2.8 2 2.8 4.2-3.8 12.6-1.4 12.6-1.4 7 2.6 4.2 6.5 2.4 7.4-1.9.8.9 1.4.9 1.4s5-.5 6.5 0c1.6.5 6.8 2.5 5.2 7.3-1.7 4.8-7.3 5-7.3 5-4.7-1.2-1.5 2-1.5 2 14.8 12.5 3 20 3 20-4.8.4-6.6-2.4-6.6-2.4a31 31 0 01-3.4-7c-.3-6.4-6.3-18.5-6.3-18.5-5.2-5-4 .5-4 .5 5 7.6-2.3 11-2.3 11-7 2.1-10.1-2-12.5-3.6-2.4-1.5-11.9-22.8-11.9-22.8-2.5-6-3.1-.6-3.1-.6 2.4 2.7 2 6.8 1.9 7.4 0 .5-4.2 3.8-7 2.9-2.6-1-6.4-5.3-6.4-5.3-7-5-3.1-25-3.1-25 6.7-15.4 5.6-19.8 5.6-19.8 1-6.2-2-7-2-7-2-.4-2.2 2.5-2.2 2.5-.4 8.2-5 10.7-5 10.7C83 157 79.4 145 79.4 145c0-11.4 5.8-20 5.8-20 6-7 6.5-13.5 6.5-13.5 3-9.6.2-17 .2-17-2.3-9.3-6.4-1.5-6.4-1.5 0 3.4-.5 9.5-.5 9.5-5.1 19.1-16.5 9.3-16.5 9.3C63.8 102 56.3 88 56.3 88c-2.5-5.8-18.1-16.8-18.1-16.8-6.8-5.6-12.8-16.3-12.8-16.3.4-8.6-6.2-5.3-6.2-5.3-1.3 3.8-.4 7.1-.4 7.1.7 2.1 11.7 18.3 14.4 22.8A1624 1624 0 0147.4 105c7.2 19.5-7.7 23.7-7.7 23.7-15.6-4.1-14.8-14.6-14.8-14.6-5-5.1-5.9 3.2-5.9 3.2-1 11.4 29.6 30 29.6 30 20 18.6 2 29.9 2 29.9-14.4 5.8-22.4 9.6-24.9 16-2.4 6.5 4.7 3.5 4.7 3.5.6-2.4 6.4-7.2 6.4-7.2 1.3-1.8 33.1-2.4 35.6 13.4s-14.9 17.4-14.9 17.4c-8.3-2.9-7.6 2.9-7.6 2.9 5.9 6.3 18.8 2.1 18.8 2.1 17.5-16 27.6-3.2 27.6-3.2 6 13.5-17.3 16-17.3 16-6.8-1.2-5.9 3-5.9 3 10.4 6.4 18.9 3.9 36.8-6.2 17.9-10 17 8.2 17 8.2-6.7 11-11.8 9.7-11.8 9.7l-8-.8c-1.8 4.6 4.3 7 4.3 7 6.8 1.8 21-5.5 21-5.5 7.2-6 13-4.5 13-4.5 7.7-3 9.1 3.2 9.1 3.2 1.9 3.6-5.7 4.9-6.7 7-1 2 1.4 2.6 1.4 2.6 10-6.7 15 4.4 15 4.4 1.7 9.5-15 11.4-15 11.4-2.3 2-.2 3.8-.2 3.8 22.6-2.2 10.3 16.4 10.3 16.4a32.8 32.8 0 01-10.6 2.6c-2.7 4 1.2 4.1 1.2 4.1 2.5-2.2 6.6-1 6.6-1 2.7.4 8.6 6.6 4.4 12.2-4.2 5.6-9.7 7-9.7 7-2 2.1-2.6 3.7-2.6 4.8l56-1.6c-.1-1-.8-2.5-2.5-4.3 0 0-5.3-1.6-9.3-7.4-4-5.7 2-11.7 4.7-12 0 0 4-1 6.5 1.2 0 0 3.8 0 1.3-4.1 0 0-7.6-1-10.4-3 0 0-11.6-18.8 10.7-16 0 0 2.2-1.8-.1-3.8 0 0-16.5-2.4-14.4-11.8 0 0 5.3-11 15-4 0 0 2.3-.4 1.3-2.5-1-2.1-8.3-3.7-6.4-7.2 0 0 1.6-6.2 9-3 0 0 6-1.2 12.9 5 0 0 13.8 7.8 20.5 6.1 0 0 6.1-2.2 4.5-6.8 0 0-3 0-8 .5 0 0-5 1.2-11.3-10 0 0-.3-18.3 17-7.7 17.4 10.6 25.8 13.5 36.2 7.3 0 0 1-4-5.7-3 0 0-23-3.3-16.7-16.6 0 0 10.4-12.4 27.3 4 0 0 12.6 4.6 18.6-1.5 0 0 .9-5.7-7.4-3.2 0 0-17.2-2.1-14.2-17.8 2.9-15.7 34.3-14.1 35.6-12.3 0 0 5.5 5 6 7.5 0 0 7 3.1 4.8-3.4s-10-10.5-24.2-16.8c0 0-17.4-11.8 3-29.9 0 0 30.9-17.5 30.1-29 0 0-.7-8.3-5.7-3.3 0 0 .5 10.5-15 14.1 0 0-14.6-4.7-6.9-23.9 0 0 12-20.6 14.8-25"/></g></svg>